<?xml version="1.0" encoding="UTF-8"?>
<svg id="Calque_2" data-name="Calque 2" xmlns="http://www.w3.org/2000/svg" viewBox="0 0 33.1 37.9">
  <defs>
    <style>
      .cls-1 {
        fill: #534b36;
      }

      .cls-1, .cls-2, .cls-3, .cls-4 {
        stroke-width: 0px;
      }

      .cls-2 {
        fill: #fffded;
      }

      .cls-3 {
        fill: #fff3c7;
      }

      .cls-4 {
        fill: #a5ce8d;
      }
    </style>
  </defs>
  <g id="Calque_1-2" data-name="Calque 1">
    <path class="cls-2" d="M33.1,10.14v13.3c-.06-.07-.11-.12-.17-.17-.17-.16-.34-.3-.52-.42-1.11-.82-2.48-1.3-3.96-1.3-2.97,0-5.49,1.93-6.37,4.6-.76-.29-1.58-.44-2.44-.44-3.92,0-7.1,3.21-7.1,7.17,0,1.96.77,3.73,2.04,5.02H4.94c-2.73,0-4.94-2.21-4.94-4.94V10.14c0-2.73,2.21-4.94,4.94-4.94h23.22c2.73,0,4.94,2.21,4.94,4.94Z"/>
    <path class="cls-4" d="M4.94,4.88h23.22c2.72,0,4.94,2.21,4.94,4.94v3.24H0v-3.24C0,7.09,2.22,4.88,4.94,4.88Z"/>
    <path class="cls-1" d="M10.82,2.96c0,1.63-.88,4.37-1.97,4.37s-1.97-2.73-1.97-4.37.88-2.96,1.97-2.96,1.97,1.32,1.97,2.96Z"/>
    <path class="cls-1" d="M26.7,2.96c0,1.63-.88,4.37-1.97,4.37s-1.97-2.73-1.97-4.37.88-2.96,1.97-2.96,1.97,1.32,1.97,2.96Z"/>
    <path class="cls-3" d="M33.1,23.44v.47s-.04.01-.06.01c-3.33.43-6.03,2.86-6.91,6.05-.03.12-.06.23-.08.35-.56-.13-1.15-.21-1.75-.23-.16-.02-.32-.02-.49-.02-.61,0-1.21.05-1.79.16-3.96.69-6.95,3.67-6.95,7.24,0,.14.01.29.02.43h-.51c-1.27-1.29-2.04-3.06-2.04-5.02,0-3.96,3.18-7.17,7.1-7.17.86,0,1.68.15,2.44.44.88-2.67,3.4-4.6,6.37-4.6,1.48,0,2.85.48,3.96,1.3.18.12.35.26.52.42.06.05.11.1.17.17Z"/>
  </g>
</svg>